<svg xmlns="http://www.w3.org/2000/svg" version="1.1" xmlns:xlink="http://www.w3.org/1999/xlink" xmlns:svgjs="http://svgjs.dev/svgjs" width="1500" height="636" viewBox="0 0 1500 636"><g transform="matrix(1,0,0,1,-0.9084522071641459,0.5899647054818615)"><svg viewBox="0 0 396 168" data-background-color="#000000" preserveAspectRatio="xMidYMid meet" height="636" width="1500" xmlns="http://www.w3.org/2000/svg" xmlns:xlink="http://www.w3.org/1999/xlink"><g id="tight-bounds" transform="matrix(1,0,0,1,0.24008861730862918,-0.155761216800542)"><svg viewBox="0 0 395.52 168.31149873730683" height="168.31149873730683" width="395.52"><g><svg viewBox="0 0 395.52 168.31149873730683" height="168.31149873730683" width="395.52"><g><svg viewBox="0 0 395.52 168.31149873730683" height="168.31149873730683" width="395.52"><g id="textblocktransform"><svg viewBox="0 0 395.52 168.31149873730683" height="168.31149873730683" width="395.52" id="textblock"><g><svg viewBox="0 0 395.52 168.31149873730683" height="168.31149873730683" width="395.52"><path d="M394.594 36.1C392.735 18.629 387.435 13.772 387.435 13.772 371.165-4.223 350.86-0.344 332.619 2.241 300.414 2.346 268.339 6.19 236.208 8.251 168.767 8.566 100.749 3.394 33.643 16.148 27.339 20.062-6.54 16.917 1.121 38.336 3.129 47.246 10.456 57.134 10.232 65.311 11.236 66.743 12.631 63.459 13.226 65.52 15.309 71.076 18.711 68.455 21.501 71.74 17.614 80.51 20.403 87.813 23.062 95.465 18.377 97.457 12.371 96.513 9.675 103.117 9.396 107.904 7.89 106.996 6.235 106.786 5.026 106.646 2.59 107.17 2.999 108.673 4.394 113.809-1.594 116.779 2.162 121.811-0.422 127.262 3.948 131.979 3.353 137.884 3.278 139.072 3.687 140.085 4.338 140.365 7.22 141.867 3.018 144.802 3.464 147.982 33.029 169.715 65.104 154.691 95.394 164.684 103.259 157.695 97.346 167.165 100.489 165.697 102.943 163.985 104.728 171.078 107.499 167.06 107.927 165.907 107.276 163.181 108.8 163.705 109.6 163.985 110.307 163.915 110.418 162.308 110.586 159.897 109.117 161.399 108.726 160.141 112.947 153.782 111.906 168.912 115.866 168.283 115.68 166.431 114.528 163.775 116.889 164.125 119.232 161.469 119.306 159.268 121.389 165.243 121.463 166.536 121.835 167.444 122.43 168.073 128.938 161.574 135.409 170.379 142.233 167.444 146.417 164.23 150.433 169.191 154.672 167.968 156.16 166.99 157.666 165.243 159.098 168.178 176.632 168.807 195.319 166.186 211.943 168.283 256.364 164.369 303.836 169.89 350.674 164.719 361.719 162.727 373.192 159.897 383.958 157.626 383.958 157.626 392.679 151.406 392.679 123.453S394.538 98.994 394.817 76.736C395.096 54.479 396.398 53.57 394.538 36.1Z" opacity="1" fill="#2d5eab" data-fill-palette-color="tertiary"></path><g transform="matrix(1,0,0,1,55.76832,26.230666666666668)"><svg width="283.98335999999995" viewBox="0.1 -33.2 113.24000000000001 46.2" height="115.85016540397349" data-palette-color="#000000"><path d="M14.95-24.05L19.2-33.2Q22.15-24.95 25.53-17.28 28.9-9.6 31.75-2.95L31.75-2.95 35.65-1.9 35 0Q33.45-0.1 31.53-0.13 29.6-0.15 28.05-0.15L28.05-0.15Q27.15-0.15 25.68-0.13 24.2-0.1 22.75-0.08 21.3-0.05 20.4 0L20.4 0 19.7-1.9 23.6-2.95Q22.1-6.8 19.83-12.33 17.55-17.85 14.95-24.05L14.95-24.05ZM16.65-33.2L19.2-33.2Q18.85-32.3 18.53-31.55 18.2-30.8 17.85-29.75 17.5-28.7 17.1-26.9L17.1-26.9Q16.15-24.3 14.98-21.08 13.8-17.85 12.58-14.53 11.35-11.2 10.35-8.18 9.35-5.15 8.8-2.95L8.8-2.95 12.5-1.9 11.85 0Q8.65-0.15 5.95-0.15L5.95-0.15Q3.45-0.15 0.75 0L0.75 0 0.1-1.9 3.8-2.95Q4.75-4.7 6.03-7.38 7.3-10.05 8.72-13.3 10.15-16.55 11.6-20.05 13.05-23.55 14.35-26.93 15.65-30.3 16.65-33.2L16.65-33.2ZM23.85-11.25L23.85-11.25 23.85-7.35Q21.7-7.6 19.78-7.65 17.85-7.7 16.25-7.7L16.25-7.7Q14.55-7.7 12.93-7.65 11.3-7.6 9.35-7.35L9.35-7.35 9.35-11.2Q11.3-10.95 12.93-10.85 14.55-10.75 16.25-10.75L16.25-10.75Q17.85-10.75 19.78-10.85 21.7-10.95 23.85-11.25ZM47.7-21.75L47.7-21.75Q47.8-19.95 47.92-18.5 48.05-17.05 48.1-16.05L48.1-16.05Q48.05-14.45 48.05-12.9 48.05-11.35 48.05-9.6L48.05-9.6Q48.05-7.9 48.05-6.13 48.05-4.35 48.1-2.18 48.15 0 48.2 2.93 48.25 5.85 48.3 9.85L48.3 9.85 53.3 11.05 52.6 13Q51.3 12.9 49.3 12.85 47.3 12.8 45.1 12.8L45.1 12.8Q42.65 12.8 41.1 12.85 39.55 12.9 38.1 13L38.1 13 37.35 11.05 41.3 10.05Q41.4 9.05 41.42 7.25 41.45 5.45 41.47 3.38 41.5 1.3 41.5-0.48 41.5-2.25 41.5-3.15L41.5-3.15Q41.5-5.45 41.47-7.55 41.45-9.65 41.37-12.15 41.3-14.65 41.1-18.15L41.1-18.15 36.9-18.9 36.35-20.95Q37.2-21 38.65-21.05 40.1-21.1 41.75-21.18 43.4-21.25 44.97-21.4 46.55-21.55 47.7-21.75ZM55-21.8L55-21.8Q57.85-21.8 59.77-20.28 61.7-18.75 62.65-16.32 63.6-13.9 63.6-11.2L63.6-11.2Q63.6-8.35 62.5-5.73 61.4-3.1 59.2-1.43 57 0.25 53.65 0.25L53.65 0.25Q50.9 0.25 48.82-1.3 46.75-2.85 45.25-5.25L45.25-5.25 46.3-7.35Q47.05-5.75 48.72-4.5 50.4-3.25 52.35-3.25L52.35-3.25Q53.85-3.25 54.85-4.28 55.85-5.3 56.35-6.95 56.85-8.6 56.85-10.4L56.85-10.4Q56.85-12.2 56.35-13.93 55.85-15.65 54.8-16.85 53.75-18.05 52.1-18.25L52.1-18.25Q51.4-18.1 50.42-17.05 49.45-16 48.75-14.45 48.05-12.9 48.05-11.2L48.05-11.2 46.65-14.55Q47.1-16.95 48.37-18.55 49.65-20.15 51.4-20.98 53.15-21.8 55-21.8ZM76.5-21.85L76.5-21.85Q79-21.85 81.12-20.75 83.25-19.65 84.52-17.43 85.8-15.2 85.8-11.85L85.8-11.85Q84.69-11.65 82.89-11.5 81.09-11.35 78.94-11.28 76.8-11.2 74.64-11.2L74.64-11.2Q73.05-11.2 71.89-11.25 70.75-11.3 70.34-11.35L70.34-11.35 70.34-13.75Q70.89-13.75 72.02-13.75 73.14-13.75 74.55-13.8 75.94-13.85 77.27-13.95 78.59-14.05 79.5-14.2L79.5-14.2Q79.44-15.25 78.92-16.32 78.39-17.4 77.34-18.15 76.3-18.9 74.64-18.9L74.64-18.9Q73.64-17.95 73.05-16.28 72.44-14.6 72.44-12.4L72.44-12.4Q72.44-7.9 74.32-5.78 76.19-3.65 78.94-3.65L78.94-3.65Q81.75-3.65 84.84-5.65L84.84-5.65 85.94-3.35Q83.8-1.4 81.34-0.55 78.89 0.3 76.5 0.3L76.5 0.3Q73.69 0.3 71.27-0.93 68.84-2.15 67.37-4.6 65.89-7.05 65.89-10.7L65.89-10.7Q65.89-14.4 67.42-16.88 68.94-19.35 71.37-20.6 73.8-21.85 76.5-21.85ZM99.74-20.95L99.74-20.95 100.59-19.05 98.29-18.1Q100.14-15.35 101.82-13 103.49-10.65 105.44-8.28 107.39-5.9 109.89-3L109.89-3 113.34-1.9 112.69 0Q111.19-0.1 109.94-0.13 108.69-0.15 106.94-0.15L106.94-0.15Q104.49-0.15 102.94-0.13 101.39-0.1 100.04 0L100.04 0 99.19-1.9 101.84-2.85Q100.29-4.8 99.02-6.5 97.74-8.2 96.52-9.9 95.29-11.6 93.87-13.55 92.44-15.5 90.64-17.95L90.64-17.95 86.84-19.05 87.44-20.95Q88.94-20.9 90.72-20.85 92.49-20.8 94.04-20.8L94.04-20.8Q97.04-20.8 99.74-20.95ZM99.09-12.35L100.94-9.6Q99.24-7.7 97.87-5.83 96.49-3.95 95.69-3L95.69-3 98.79-1.9 98.04 0Q96.49-0.1 95.44-0.13 94.39-0.15 92.79-0.15L92.79-0.15Q91.09-0.15 90.04-0.13 88.99-0.1 87.64 0L87.64 0 86.84-1.9 91.19-3Q92.09-3.9 93.39-5.48 94.69-7.05 96.17-8.88 97.64-10.7 99.09-12.35L99.09-12.35ZM100.79-8.6L98.94-11.35Q100.59-13.25 101.97-15.18 103.34-17.1 104.09-17.95L104.09-17.95 100.99-19.05 101.74-20.95Q102.99-20.9 103.92-20.85 104.84-20.8 106.34-20.8L106.34-20.8Q108.04-20.8 109.09-20.85 110.14-20.9 111.49-20.95L111.49-20.95 112.29-19.05 108.49-17.95Q107.49-16.8 106.19-15.18 104.89-13.55 103.52-11.85 102.14-10.15 100.79-8.6L100.79-8.6Z" opacity="1" transform="matrix(1,0,0,1,0,0)" fill="#000000" class="wordmark-text-0" data-fill-palette-color="quaternary" id="text-0"></path></svg></g></svg></g></svg></g></svg></g><g></g></svg></g><defs></defs></svg><rect width="395.52" height="168.31149873730683" fill="none" stroke="none" visibility="hidden"></rect></g></svg></g></svg>